<svg width="602" height="515" viewBox="0 0 602 515" fill="none" xmlns="http://www.w3.org/2000/svg">
<path d="M514.628 12.0079C542.382 24.5536 565.007 49.645 580.995 78.4431C597.285 107.526 607.24 140.601 598.793 168.829C590.648 196.772 564.102 220.152 545.398 260.641C526.393 301.414 515.232 359.581 483.557 382.391C451.58 405.487 399.392 393.226 362.287 367.279C325.182 341.047 302.859 300.844 265.754 268.624C228.951 236.12 176.762 211.599 155.042 173.391C133.322 134.899 142.372 83.0051 175.556 52.4963C208.437 21.9874 265.754 13.1484 310.702 8.01605C355.349 2.88372 387.627 1.17294 420.509 0.317548C453.39 -0.537841 486.573 -0.537835 514.628 12.0079Z" fill="url(#paint0_linear)"/>
<path d="M347.333 129.232C395.809 157.638 452.62 187.896 462.809 228.652C472.998 269.717 436.256 321.28 405.071 377.474C374.195 433.359 348.877 494.185 307.195 509.931C265.204 525.369 206.539 496.037 146.64 473.189C86.7409 450.032 25.6066 433.359 6.77232 394.764C-11.7532 356.478 12.0212 296.579 26.8417 239.15C41.6621 181.721 47.8373 126.453 78.7131 95.2682C109.28 63.7748 164.548 56.0559 212.097 65.3186C259.337 74.5814 299.167 100.826 347.333 129.232Z" fill="#F28F3B"/>
<path d="M510.036 254.78C532.733 266.377 548.491 289.87 562.1 314.41C575.84 338.903 587.61 364.53 582.716 386.512C578.001 408.579 556.709 426.823 535.136 437.915C513.432 449.053 491.401 452.907 470.004 451.804C448.786 450.787 428.116 444.991 406.039 433.473C384.093 421.909 360.607 404.669 359.177 385.341C357.748 366.014 378.244 344.645 393.401 320.703C408.559 296.761 418.292 270.425 438.02 257.018C457.748 243.612 487.384 243.314 510.036 254.78Z" fill="#FF0066"/>
<defs>
<linearGradient id="paint0_linear" x1="372.55" y1="0" x2="372.55" y2="394.604" gradientUnits="userSpaceOnUse">
<stop stop-color="#1282A2"/>
<stop offset="1" stop-color="#1282A2"/>
</linearGradient>
</defs>
</svg>
