<svg width="1382" height="759" viewBox="0 0 1382 759" fill="none" xmlns="http://www.w3.org/2000/svg">
<path d="M1289.41 12.726C1318.82 26.022 1342.8 52.614 1359.74 83.1344C1377.01 113.957 1387.56 149.01 1378.6 178.926C1369.97 208.54 1341.84 233.319 1322.02 276.229C1301.87 319.441 1290.05 381.086 1256.48 405.26C1222.59 429.737 1167.28 416.743 1127.95 389.245C1088.63 361.444 1064.97 318.836 1025.65 284.69C986.643 250.241 931.334 224.253 908.315 183.761C885.296 142.966 894.887 87.9693 930.055 55.6358C964.903 23.3024 1025.65 13.9347 1073.28 8.49545C1120.6 3.05618 1154.81 1.24308 1189.66 0.336539C1224.51 -0.570007 1259.67 -0.57 1289.41 12.726Z" fill="url(#paint0_linear)"/>
<path d="M1112.11 136.961C1163.48 167.065 1223.69 199.133 1234.49 242.327C1245.29 285.848 1206.35 340.494 1173.3 400.049C1140.57 459.277 1113.74 523.74 1069.57 540.428C1025.06 556.79 962.892 525.703 899.41 501.489C835.928 476.947 771.138 459.277 751.177 418.374C731.544 377.798 756.74 314.316 772.447 253.452C788.154 192.589 794.698 134.016 827.421 100.966C859.816 67.5889 918.389 59.4083 968.782 69.2251C1018.85 79.0418 1061.06 106.856 1112.11 136.961Z" fill="#F28F3B"/>
<path d="M1284.54 270.017C1308.59 282.308 1325.29 307.205 1339.72 333.213C1354.28 359.172 1366.75 386.331 1361.57 409.627C1356.57 433.014 1334 452.349 1311.14 464.105C1288.14 475.909 1264.79 479.993 1242.11 478.825C1219.63 477.747 1197.72 471.604 1174.32 459.397C1151.06 447.142 1126.17 428.87 1124.66 408.387C1123.14 387.903 1144.86 365.257 1160.93 339.883C1176.99 314.509 1187.31 286.598 1208.22 272.389C1229.12 258.181 1260.53 257.866 1284.54 270.017Z" fill="#FF0066"/>
<defs>
<linearGradient id="paint0_linear" x1="1138.83" y1="0" x2="1138.83" y2="418.204" gradientUnits="userSpaceOnUse">
<stop stop-color="#1282A2"/>
<stop offset="1" stop-color="#1282A2"/>
</linearGradient>
</defs>
</svg>
